<svg xmlns="http://www.w3.org/2000/svg" xmlns:xlink="http://www.w3.org/1999/xlink" version="1.1" id="Layer_1" x="0px" y="0px" width="100px" height="100px" viewBox="0 0 100 100" enable-background="new 0 0 100 100" xml:space="preserve">
<path fill="#000000" d="M49.951,87.075c0.212-0.248,0.117-0.575-0.033-0.841C50.075,86.505,50.178,86.833,49.951,87.075z"/>
<path fill="#000000" d="M64.521,86.734c-0.15,0.17-0.451,0.289-0.98,0.33c-0.09,0.01-0.221,0.01-0.38,0.021  c-0.41,0.011-1.04,0.021-1.841,0.04c-0.439,0-0.92,0-1.449,0.011c-0.811,0-1.92,0-3.229,0.01c-1.933,0.011-4.07,0.011-6.19,0.011  c-3.66,0-7.23-0.011-9.46-0.021c-0.62,0-1.13-0.011-1.52-0.011c-1.29-0.012-2.27-0.029-2.77-0.051c-0.07,0-0.15,0-0.23-0.01  c-0.09-0.011-0.17-0.021-0.24-0.031c-1.73-0.238-0.36-1.618-0.36-1.618s2.1-1.642,3.14-3.279c0,0,0.31-0.011,0.6-2.54  c0.4-3.58,0.75-6.359,0.75-6.359h19.291c0,0,0.341,2.779,0.75,6.359c0.279,2.529,0.591,2.54,0.591,2.54  c0.979,1.54,2.88,3.08,3.118,3.271c0.012,0,0.021,0.011,0.021,0.011s0.07,0.069,0.16,0.188  C64.51,85.873,64.819,86.384,64.521,86.734z"/>
<path fill="#000000" d="M49.901,85.83c0.064,0.078,0.135,0.179,0.197,0.289C50.036,86.011,49.965,85.91,49.901,85.83z"/>
<path fill="#000000" d="M50.129,71.937c-3.169,0.013-44.547,0.144-46.563,0C1.471,71.79,1.32,69.691,1.32,69.691V14.744  c0-1.797,2.245-1.9,2.245-1.9h46.116h0.639h46.113c0,0,2.246,0.103,2.246,1.9v54.948c0,0-0.15,2.099-2.246,2.245  C94.463,72.078,54.797,71.951,50.129,71.937 M94.898,16.541H5.213v50.756h89.686V16.541L94.898,16.541z"/>
</svg>