<svg xmlns="http://www.w3.org/2000/svg" xmlns:xlink="http://www.w3.org/1999/xlink" xmlns:a="http://ns.adobe.com/AdobeSVGViewerExtensions/3.0/" version="1.1" x="0px" y="0px" width="100.0px" height="100px" viewBox="-6.327 -0.652 250 250" enable-background="new -6.327 -0.652 250 250" xml:space="preserve">
<defs>
</defs>
<path d="M210.362,161.506H26.903C12.044,161.506,0,173.551,0,188.408v34.457c0,14.858,12.044,26.903,26.903,26.903h183.459  c14.857,0,26.902-12.045,26.902-26.903v-34.457C237.265,173.551,225.22,161.506,210.362,161.506z M68.208,224.315H27.499v-13.25  h40.708V224.315z M68.208,200.21H27.499v-13.252h40.708V200.21z"/>
<path d="M219.716,45.92c-13.151-5.747-27.438-8.907-42.366-8.907s-29.215,3.16-42.367,8.907l10.575,17.465  c9.979-3.887,20.672-6.001,31.792-6.001c11.119,0,21.813,2.114,31.792,6.001L219.716,45.92z"/>
<path d="M177.35,20.371c17.896,0,34.857,4.646,50.006,12.93l10.398-17.174C219.566,5.816,199.05,0,177.35,0  c-21.701,0-42.219,5.816-60.405,16.127l10.399,17.174C142.492,25.017,159.453,20.371,177.35,20.371z"/>
<path d="M165.966,83.903v71.898c0,0.069,0.018,0.133,0.023,0.2h22.721c0.006-0.067,0.023-0.131,0.023-0.2V83.903  c0-6.287-5.097-11.384-11.384-11.384C171.062,72.52,165.966,77.616,165.966,83.903z"/>
</svg>