<svg xmlns="http://www.w3.org/2000/svg" xmlns:xlink="http://www.w3.org/1999/xlink" version="1.1" id="Layer_1" x="0px" y="0px" width="100px" height="100px" viewBox="0 0 100 100" enable-background="new 0 0 100 100" xml:space="preserve">
<path fill="#000000" d="M81.565,42.683c0.008-0.036,0.042-0.633,0.039-0.669c1.338,0.05,2.629,0.285,3.636,1.285  c-1.204-1.928-4.085-4.07-6.615-4.002c-0.005-0.005-0.01-0.009-0.016-0.014c0.909-0.15,1.847-0.195,2.795-0.067  c-1.709-0.641-3.937-1.756-5.946-2.088c-0.413-0.274-0.784-0.654-1.292-0.879c-1.499-0.664-0.278-0.947-0.582-1.265  c-0.571-0.597-2.577,0.16-3.334-0.146c-0.946-0.384,0.02-1.387,0.744-1.434c-0.625-0.625-2.691,0.072-3.6-0.147  c-1.218-0.294-1.526-1.108-1.561-2.111v-0.479c0.004-0.1,0.006-0.198,0.012-0.3c0.576-0.081,1.215,0.989,1.809,0.956  c0.049-0.861-0.666-3.48-1.242-4.104c-0.326-0.353-1.105-0.677-0.354-1.138c0.324-0.198,1.297,0.041,1.623,0.135  c-1.174-1.627-3.435-1.672-5.256-2.262l-1.015-0.479c0.33-0.202,0.7-0.363,1.083-0.407c-1.48-0.984-3.584-1.582-5.355-2.096  c-1.445-0.419-2.64-0.887-4.139-0.887v0.003l-6.552-2.189c-0.549-0.183-1.128-0.258-1.705-0.223l-0.534,0.033  c-2-0.585-4.111-0.458-6.299-0.458c0.575,0.123,0.94,0.419,1.223,0.773l-0.412,0.025c-0.53,0.033-1.04,0.162-1.513,0.368  c-1.51,0.062-2.729,0.312-4.042,1.836c1.759,0.359-0.34,2.009-0.854,2.428c-0.965,0.787-1.686,1.888-2.389,2.952  c0.382-0.051,0.779,0.038,1.155,0.011c0.272,1.254-1.809,3.766-2.396,4.793c-0.903,1.581-2.843,4.323-4.512,5.028  c0.546,0.251,1.138,0.681,1.427,1.262l-1.72,3.549c-1.227-0.846-2.902,3.842-4.353,4.295c0.492,0.376,1.26,0.586,1.804,0.964  L21.01,46.19c-0.797,0.02-1.697-0.377-2.35-0.625c0.034,0.878,0.509,1.649,0.86,2.447l-0.455,0.04  c-2.476,0.219-4.305,2.404-4.085,4.879c0.207,2.341,2.171,4.104,4.477,4.104c0.133,0,0.268-0.006,0.402-0.018l2.975-0.264  c-0.029,0.644-0.148,1.266-0.742,1.971c0.798-0.597,1.355-1.266,1.74-2.082c0.385-0.064,0.755-0.177,1.104-0.334  c-0.079,0.971-0.345,1.895-1.044,2.686c1.489-1.057,3.038-3.2,3.486-5.31l0.299-0.615c0.082,0.607,0.114,1.226,0.066,1.855  c0.48-1.553,1.317-3.542,1.646-5.391l3.69-7.615l-1.404,5.114c-0.138,0.36-0.375,1.589-0.579,2.734  c-0.353,0.624-0.695,1.293-0.944,1.878c-0.673,1.578-0.942,3.593-0.82,5.471c0.074-0.961,0.729-1.996,1.47-2.688  c0.083,0.272,0.185,0.537,0.303,0.797c-0.146,1.332-0.122,3.082,0.698,3.595c0.056-0.589,0.204-1.244,0.475-1.831  c0.579,0.616,1.287,1.128,2.108,1.491l2.384,1.055l-0.601,1.978c-1.175,2.292-3.116,4.963-4.146,7.188  c0.862,0.078,1.616-0.262,2.164-0.925c0.023,0.017,0.04,0.039,0.062,0.057l-1.39,4.575l-4.08,4.848  c-1.939,0.778-3.768,1.636-4.436,4.024c0.441-0.284,0.958-0.465,1.496-0.531l-2.856,3.394c-1.762,0.477-3.532,0.873-3.952,2.072  c0.604,0.031,1.287,0.137,1.994,0.254l-0.975,1.158c-2.312,2.747-1.959,6.847,0.788,9.159c1.219,1.025,2.705,1.526,4.182,1.526  c1.852,0,3.691-0.787,4.977-2.314l1.829-2.173c0.226,0.41,0.409,0.84,0.503,1.298c0.136-0.756,0.269-1.572,0.421-2.396l3.042-3.615  c0.261,1.008-0.1,2.17,0.337,3.377c0.497-1.745,0.873-3.893,1.697-5.584c0.1-0.205,0.201-0.387,0.301-0.568l1.161-1.379  c0.275,0.816,0.484,1.732,0.711,2.211c0.217-0.854,0.822-2.768,1.237-4.525l1.391-1.652c0.521,1.172,0.383,2.834,0.364,3.965  c0.825-2.941,1.757-5.412,2.148-8.247l3.609-11.877l5.791,2.562c-0.316,2.433-1.004,6.045,0.595,7.258  c0.178-0.93,0.342-2.004,0.707-2.955l0.858,4.161c0.035,0.787,0.005,1.596-0.163,2.479c-0.354,1.86-0.359,4.755,0.463,6.523  c0.345-1.158,0.361-2.459,0.852-3.43l2.799,13.554c0.635,3.072,3.34,5.187,6.359,5.187c0.436,0,0.877-0.044,1.32-0.136  c3.516-0.726,5.777-4.164,5.052-7.68l-0.54-2.613c0.608,0.227,1.205,0.593,1.637,0.967c-0.258-1.067-1.265-2.278-2.16-3.502  l-0.527-2.556c0.612,0.43,1.154,0.625,1.717,1.464c-0.412-1.618-0.975-2.701-1.847-4.175c-0.182-0.307-0.403-0.644-0.636-0.995  l-2.151-10.418c0.744,0.116,1.418,0.408,1.907,1.15c-0.312-2.135-1.469-3.294-2.594-4.477l-0.479-2.32  c1.206,0.337,2.428,0.652,2.798,1.559c0.101-2.35-1.475-4.353-3.133-5.833c-0.324-0.289-0.728-0.654-1.178-1.046  c-0.681-1.09-1.677-1.969-2.884-2.502l-2.781-1.229c0.043-0.601,0.346-1.15,0.92-1.159c-2.411,0-3.644,0.197-5.446-1.27  c-1.078-0.878-1.933-1.215-3.07-1.335l1.447-5.427c0.572,1.131,0.753,2.719,1.023,3.772c0.002-1.806,0.334-4.393,0.051-6.104  c-0.056-0.337-0.122-0.661-0.191-0.979l0.699-2.623c0.19,0.305,0.383,0.603,0.617,0.809c0.231,0.62,0.77,1.243,0.799,1.953  c-0.007-1.986-0.579-4.066-0.554-5.997l0.083-0.313l0.079-0.677c0.188,0.71,0.549,1.356,1.043,1.894  c0.072,1.221,0.311,2.145,1.021,3.373c0.082-0.53,0.158-1.208,0.416-1.746c0.003,1.14,0.273,1.977,1.172,2.752  c0.12-1.056-0.067-1.869,0.014-2.713l3.247,1.663c0.289,0.961,1.479,2.745,2.242,2.776c-0.012-0.575-0.077-1.131,0.143-1.555  l2.094,1.072c0.501,1.02,0.951,2.12,1.64,3.134c-0.194-1.011,0.15-1.56,0.588-1.995l1.606,0.823l2.353,5.226  c0.75,1.667,2.39,2.654,4.106,2.654c0.617,0,1.244-0.128,1.844-0.397c2.267-1.021,3.277-3.685,2.257-5.951l-1.567-3.483  c1.38,0.351,2.428-0.093,3.662,1.076C84.04,43.829,83.057,43.074,81.565,42.683z"/>
<path fill="#000000" d="M43.769,11.487c0.485,0.065,0.954-0.126,1.428-0.311c0.121,0.594,0.305,1.161,0.541,1.7  c-0.156,0.324-0.304,0.65-0.369,0.999c-0.156,0.826,0.174,1.497,0.505,2.215c0.154-0.527,0.479-1.055,0.895-1.467  c1.711,2.238,4.489,3.586,7.498,3.32c0.486-0.043,0.955-0.135,1.412-0.255c0.046,0.303,0.063,0.645,0.09,1.053  c0.664-0.242,1.15-0.911,1.557-1.673c0.6-0.301,1.157-0.67,1.663-1.097c0.031,0.485,0,0.991,0.036,1.517  c0.806-0.922,1.139-1.868,1.273-2.908c0.548-0.727,0.983-1.538,1.276-2.412c0.46,0.159,0.859,0.422,1.056,0.92  c0.075-1.258-0.188-2.273-0.632-3.241c0.016-0.368,0.017-0.739-0.017-1.116c-0.081-0.913-0.308-1.776-0.648-2.577  c0.398-0.104,0.92-0.145,1.531-0.169c-0.475-1.004-2.062-1.987-3.27-2.439c-0.613-0.627-1.323-1.155-2.101-1.568  c0.41-0.361,1.045-0.76,1.276-0.856c-0.895-0.624-2.414-0.289-3.798-0.006c-0.642-0.112-1.304-0.152-1.98-0.11  c-1.374-0.272-2.667-0.909-4.108-0.481c0.154,0.569,0.745,0.805,0.928,1.317c-0.545,0.266-1.058,0.583-1.529,0.953  c-1.677,0.665-3.167,1.934-3.737,3.561c0.323-0.069,0.727-0.125,1.129-0.132c-0.218,0.522-0.382,1.07-0.492,1.635  C44.319,8.937,43.669,10.262,43.769,11.487z"/>
</svg>