<svg xmlns="http://www.w3.org/2000/svg" xmlns:xlink="http://www.w3.org/1999/xlink" version="1.1" x="0px" y="0px" width="100px" height="100px" viewBox="-346 256 100 100" enable-background="new -346 256 100 100" xml:space="preserve">
<g id="Layer_2">
</g>
<g id="Layer_1">
	<path d="M-255.337,264.073h-81.387c-5.114,0-9.276,4.162-9.276,9.277v54.501c0,5.115,4.162,9.276,9.276,9.276h36.657   c1.719,4.467,11.402,10.68,11.402,10.68V356h24.536v-18.873h8.792c5.114,0,9.275-4.161,9.275-9.276V273.35   C-246.062,268.234-250.223,264.073-255.337,264.073z M-255.776,327.412h-8.353v-14.147c0-3.882-5.755-3.882-5.755,0v5.664   c0,0.628-1.621,0.628-1.621,0v-9.754c0-3.881-5.808-3.881-5.808,0v9.754c0,0.628-1.621,0.628-1.621,0v-13.303   c0-3.879-5.808-3.879-5.808,0v13.303c0,0.628-1.621,0.628-1.621,0v-26.995c0-3.871-5.808-3.871-5.808,0v34.423   c0,0.681-1.831,0.681-1.831,0v-12.951c0-4.711-6.33-4.502-6.33,0v14.007h-35.955v-53.625h80.509V327.412z M-250.916,302.531   c-1.046,0-1.894-0.848-1.894-1.893c0-1.046,0.848-1.895,1.894-1.895c1.047,0,1.895,0.848,1.895,1.895   C-249.021,301.683-249.869,302.531-250.916,302.531z"/>
	<circle cx="-295.102" cy="296.333" r="1.654"/>
	<circle cx="-283.359" cy="296.333" r="1.654"/>
	<circle cx="-289.491" cy="285.342" r="1.655"/>
	<circle cx="-294.074" cy="286.999" r="1.654"/>
	<circle cx="-284.7" cy="286.999" r="1.655"/>
	<circle cx="-296.26" cy="291.273" r="1.655"/>
	<circle cx="-282.319" cy="291.273" r="1.654"/>
</g>
</svg>